<?xml version="1.0" standalone="no"?>
<!DOCTYPE svg PUBLIC "-//W3C//DTD SVG 1.0//EN" "http://www.w3.org/TR/2001/REC-SVG-20010904/DTD/svg10.dtd">
<svg xmlns="http://www.w3.org/2000/svg" xmlns:xlink="http://www.w3.org/1999/xlink" id="body_1" width="32" height="32">

<g transform="matrix(0.106570765 0 0 0.106570765 3.424651 -0)">
	<g>
		<g>
            <path d="M0.06 87.42C 0.06 151.39 -2.3700001 189.56 24.16 229.36C 48.89 266.45 80.69 280.9 118 300.27002C 155.31 280.90002 187.11 266.45 211.84 229.36002C 238.37 189.56001 235.94 151.39001 235.94 87.42001L235.94 87.42001L235.94 1.5258789E-05L0.05999756 1.5258789E-05L0.05999756 87.42001L0.06 87.42z" stroke="none" fill="#373435" fill-rule="nonzero" />
            <path d="M118 296.75C 154.58 277.81 185.38 263.41 209.23001 227.63C 216.17001 217.23001 221.49 206.26001 225.16 194.3C 229.84 179.06 231.57 163.19 232.31 147.32C 232.73999 138.04001 232.84 128.74 232.87 119.44001C 232.89 108.77001 232.81 98.100006 232.81 87.42001L232.81 87.42001L232.81 3.1300125L3.1900024 3.1300125L3.1900024 87.42001C 3.1900024 98.10001 3.1100025 108.77001 3.1300025 119.44002C 3.1600025 128.74002 3.2600026 138.04002 3.6900024 147.32002C 4.430002 163.19002 6.1600027 179.06003 10.840002 194.30002C 14.510002 206.26003 19.830002 217.23001 26.770002 227.63002C 50.620003 263.41003 81.420006 277.81003 118.00001 296.75003L118.00001 296.75003L118 296.75z" stroke="none" fill="#FEFEFE" fill-rule="nonzero" />
            <path d="M224.99 44.37L224.99 10.95L11.01 10.95L11.01 44.37L224.99 44.37" stroke="none" fill="#373435" fill-rule="nonzero" />
            <path d="M223.04 42.42L223.04 12.9L12.96 12.9L12.96 42.42L223.04 42.42" stroke="none" fill="#FEFEFE" fill-rule="nonzero" />
            <path d="M118 287.95C 151.72 270.56 180.68 256.36002 202.73001 223.29001C 209.22002 213.56001 214.25002 203.20001 217.69002 192.01001C 222.16002 177.43001 223.79002 162.14001 224.50002 146.96C 224.93001 137.79001 225.02002 128.6 225.05002 119.43001C 225.07002 108.76001 224.99002 98.09001 224.99002 87.42001L224.99002 87.42001L224.99002 51.02001L11.010025 51.02001L11.010025 87.42001C 11.010025 98.09001 10.930025 108.76001 10.950025 119.43001C 10.980024 128.6 11.0700245 137.79001 11.500025 146.96C 12.210025 162.14001 13.840025 177.43001 18.310024 192.01001C 21.750025 203.20001 26.780025 213.56001 33.270023 223.29001C 55.320023 256.36002 84.28002 270.56 118.00003 287.95L118.00003 287.95L118 287.95z" stroke="none" fill="#373435" fill-rule="nonzero" />
            <path d="M44.55 80.7C 44.48 83.549995 40.62 84.939995 37.87 87.659996C 36.079998 88.869995 36.46 93.079994 35.23 92.67999C 35.23 88.24999 34.71 85.21999 35.28 84.37999C 36.809998 82.14999 39.57 82.20999 41.76 80.91999C 42.62 80.40999 43.379997 79.68999 43.949997 78.54999C 45.269997 76.14999 43.909996 72.80999 45.53 69.25999C 41.6 72.969986 36.579998 76.41998 35.12 81.89999C 35.329998 81.039986 35.02 77.47999 35.75 77.07999C 36.24 74.98999 37.3 74.48999 37.3 72.41998C 37.3 72.249985 37.3 72.069984 37.3 71.89999C 37.3 66.539986 34.03 67.27998 34.72 58.969986C 33.64 59.759987 30.060001 68.97999 30.060001 70.86999C 30.060001 71.389984 30.060001 71.89999 30.060001 72.41999C 30.060001 74.23999 32.7 77.49999 33.68 78.62999C 33.68 79.65999 33.68 80.69999 33.68 81.72999C 30.84 77.639984 33.7 78.65999 28.37 74.62999C 24.1 71.39999 25.230001 71.64999 22.300001 68.27999C 22.300001 75.30999 22.76 78.66999 25.45 80.74999C 27.18 82.079994 30.240002 81.979996 33.85 83.78999C 33.969997 86.729996 34.079998 89.66999 34.199997 92.59999C 32.799995 92.09999 32.119995 87.20999 28.899998 84.95999C 26.939999 83.30999 23.869997 83.48999 21.789997 79.65999C 22.449997 87.61999 24.199997 94.98999 32.649998 95.17999C 34.359997 97.729996 34.719997 99.76999 34.719997 103.96999C 34.719997 105.34999 34.719997 106.729996 34.719997 108.10999C 31.769997 107.869995 32.129997 102.30999 28.909998 98.909996C 27.249998 97.159996 26.669998 97.259995 24.669998 95.92C 22.219997 94.29 22.279999 94.09 20.749998 92.08C 20.749998 100.61 21.189999 104.05 29.809998 108.26C 32.739998 109.69 34.039997 109.76 34.559998 113.18C 34.659996 113.87 34.719997 114.6 34.719997 115.35C 34.719997 117.42 34.719997 119.49 34.719997 121.56C 32.239998 120.96 32.1 116.97 28.509998 114.32C 27.13 113.11 25.519999 112.61 24.14 111.4C 23.099998 110.54 22.3 108.98 21.27 108.11C 22.560001 113.68 21.970001 119.2 26.44 121.56C 32.91 125.67 35.23 119.31 35.23 133.45999C 33.399998 134.48999 32.55 129.51 31.23 128.07999C 30.63 127.429985 29.82 126.84998 28.52 126.209984C 23.95 123.94998 25.02 123.02998 22.300001 121.04999C 22.380001 124.72999 23.500002 131.31999 25.920002 132.93999C 29.330002 138.02998 35.75 135.29999 35.75 145.35999C 35.75 146.73999 35.75 148.11998 35.75 149.49998C 34.42 149.70999 34.18 147.23999 33.1 144.78998C 32.039997 142.35999 30.39 141.20998 28.239998 139.87997C 26.799997 138.98997 24.889997 137.64998 22.819998 135.00998C 24.159998 137.91998 24.939999 143.69998 26.149998 146.92998C 27.069998 149.38998 29.049997 150.91998 31.269997 152.20998C 33.589996 153.56998 35.749996 154.71997 35.749996 157.76997C 35.749996 157.93997 35.749996 158.11998 35.749996 158.28998C 35.749996 160.06998 35.369995 161.86998 35.229996 163.48997C 33.279995 162.37997 36.459995 159.40997 29.699995 154.17998C 28.059996 152.91998 24.009995 150.57997 22.299995 147.42998C 23.029995 151.06998 24.259995 153.19998 25.089996 158.08998C 25.709997 161.78998 27.459995 165.21999 30.579996 166.04999C 31.609997 166.38998 32.649998 166.73999 33.679996 167.07999C 36.629997 169.63998 35.749996 170.72998 35.749996 175.87999C 33.739998 176.29 35.129997 172.46999 30.259996 169.07999C 26.789997 166.04999 23.339996 165.07999 20.749996 159.31999C 24.199997 166.84999 22.479996 168.84999 24.989996 173.09999C 26.309996 175.32999 28.059996 177.37 30.469995 179.09C 32.129997 180.26999 35.749996 180.48999 35.749996 182.59999C 35.749996 182.95 35.749996 183.29 35.749996 183.63998C 35.559998 185.52998 35.359997 187.41998 35.159996 189.31998C 38.309998 188.49997 36.439995 183.93997 38.179996 181.68997C 39.499996 179.98997 40.859997 180.21997 42.089996 179.47997C 43.749996 178.49997 44.719997 175.95996 45.099995 174.20996C 45.959995 170.17996 46.199993 164.06996 47.649994 161.90996C 45.239994 164.68996 42.409996 166.86996 39.979996 169.51996C 37.209995 172.53996 39.179996 174.14996 37.299995 175.44995C 37.299995 171.30995 37.619995 167.83995 38.259995 166.82996C 38.999996 165.67996 40.149994 165.58995 41.729996 164.34996C 43.289997 163.12996 44.959995 161.15996 45.669994 159.28996C 46.979996 155.83997 46.539993 151.26996 48.169994 147.93996C 47.109993 150.66995 43.679993 152.52995 40.759995 154.98996C 39.079994 156.40996 37.969994 160.10995 36.789993 159.83997C 36.789993 158.80997 36.789993 157.76996 36.789993 156.73996C 36.789993 150.56996 47.129993 152.55997 47.129993 133.97997C 46.099995 137.05997 42.719994 138.74997 40.329994 142.33997C 38.899994 144.48996 37.819996 146.46997 37.819996 147.42996C 37.819996 148.94997 38.469997 150.00996 36.789997 150.00996C 36.569996 147.77997 36.359997 145.53996 36.149998 143.29996C 36.19 142.77995 36.23 142.25996 36.269997 141.73996C 36.269997 135.44997 41.359997 135.18996 44.239998 131.60995C 47.429996 127.649956 45.859997 121.77995 48.17 117.41995C 45.19 120.55995 42.219997 123.69995 39.239998 126.83995C 37.57 128.60995 37.739998 133.45995 36.269997 133.45995C 36.269997 123.489944 35.619995 125.379944 38.449997 121.53995C 39.6 119.989944 39.719997 119.68995 41.449997 118.99995C 42.969997 118.39995 44.359997 117.459946 45.409996 116.25995C 46.849995 114.60995 47.219997 113.01995 47.449997 110.889946C 47.749996 108.19994 48.01 104.50995 48.679996 102.93995C 47.699997 105.09995 44.019997 107.47995 41.209995 109.96995C 39.319996 111.639946 37.779995 113.54995 37.469994 116.099945C 37.269993 117.67995 37.379993 119.96995 36.239994 120.74995C 36.239994 118.559944 36.239994 116.35995 36.239994 114.169945C 36.239994 112.139946 36.549995 110.36994 38.139996 108.879944C 39.689995 107.42995 41.589996 107.61994 43.899994 104.879944C 46.799995 101.43994 46.609993 98.57994 46.609993 92.58994C 45.269993 94.459946 43.249992 96.53994 40.609993 98.489944C 39.699993 99.15994 39.04999 99.75994 38.579994 100.29994C 36.329994 102.88994 38.369995 104.15994 36.359993 106.54994C 36.319992 103.90994 36.289993 101.26994 36.259995 98.629944C 37.539993 96.39994 39.439995 95.76994 41.359993 94.22994C 45.809994 90.639946 44.809994 85.31995 44.54999 80.69994L44.54999 80.69994L44.55 80.7z" stroke="none" fill="#FFF212" fill-rule="nonzero" />
            <path d="M21.01 35.71L21.01 19.609999L24.28 19.609999L24.28 26.739998L30.85 19.609997L35.22 19.609997L29.140001 25.879997L35.54 35.71L31.330002 35.71L26.900002 28.15L24.280003 30.84L24.280003 35.71L21.010002 35.71L21.01 35.71zM36.54 27.759998C 36.54 26.109999 36.79 24.729998 37.280003 23.619999C 37.640003 22.8 38.15 22.06 38.780003 21.4C 39.410004 20.75 40.110004 20.27 40.86 19.949999C 41.86 19.529999 43.02 19.31 44.34 19.31C 46.71 19.31 48.61 20.05 50.04 21.529999C 51.46 22.999998 52.18 25.05 52.18 27.679998C 52.18 30.289999 51.47 32.329998 50.05 33.8C 48.64 35.27 46.75 36 44.379997 36C 41.979996 36 40.079998 35.27 38.659996 33.81C 37.249996 32.350002 36.539997 30.330002 36.539997 27.760002zM39.89 27.649998C 39.89 29.469997 40.32 30.859997 41.16 31.799997C 42 32.739998 43.079998 33.219997 44.37 33.219997C 45.67 33.219997 46.739998 32.749996 47.579998 31.809998C 48.41 30.879997 48.82 29.469997 48.82 27.599998C 48.82 25.749998 48.42 24.369999 47.61 23.469997C 46.8 22.559998 45.72 22.099997 44.37 22.099997C 43.03 22.099997 41.949997 22.559996 41.129997 23.479996C 40.309998 24.399996 39.889996 25.789995 39.889996 27.649996zM58.34 35.71L58.34 22.329998L53.57 22.329998L53.57 19.609999L66.34 19.609999L66.34 22.329998L61.6 22.329998L61.6 35.71L58.34 35.71zM81.3 35.71L77.78001 35.71L76.39001 32.05L69.93001 32.05L68.59001 35.71L65.140015 35.71L71.40002 19.609999L74.84002 19.609999L81.30002 35.71zM75.340004 29.32L73.100006 23.36L70.920006 29.32L75.340004 29.32zM88.4 35.71L88.4 19.609999L93.29 19.609999L96.18 30.589998L99.03 19.609999L103.93 19.609999L103.93 35.71L100.91 35.71L100.9 23.029999L97.72 35.71L94.590004 35.71L91.43 23.029999L91.42 35.71L88.4 35.71zM121.7 35.71L118.18 35.71L116.79 32.05L110.33 32.05L109 35.71L105.55 35.71L111.8 19.609999L115.25 19.609999L121.7 35.71zM115.74 29.32L113.5 23.36L111.32 29.32L115.74 29.32zM130.93 29.8L130.93 27.07L137.92 27.07L137.92 33.5C 137.24 34.16 136.26 34.75 134.95999 35.25C 133.67 35.75 132.35999 36 131.04 36C 129.34999 36 127.88999 35.65 126.63999 34.94C 125.38999 34.239998 124.44999 33.219997 123.81999 31.899998C 123.189995 30.589998 122.869995 29.149998 122.869995 27.599998C 122.869995 25.919998 123.21999 24.429998 123.92999 23.119999C 124.62999 21.82 125.659996 20.81 127.009995 20.109999C 128.04999 19.579998 129.33 19.31 130.87 19.31C 132.86 19.31 134.43 19.73 135.54999 20.57C 136.66998 21.42 137.4 22.57 137.71999 24.06L137.71999 24.06L134.47998 24.67C 134.24998 23.88 133.82999 23.25 133.19998 22.79C 132.57999 22.330002 131.79999 22.1 130.85999 22.1C 129.43999 22.1 128.31999 22.550001 127.47999 23.460001C 126.63999 24.36 126.219986 25.7 126.219986 27.470001C 126.219986 29.390001 126.64999 30.820002 127.499985 31.78C 128.34999 32.74 129.45999 33.22 130.82999 33.22C 131.50998 33.22 132.18999 33.08 132.87999 32.81C 133.55998 32.550003 134.15 32.22 134.63998 31.840002L134.63998 31.840002L134.63998 29.800003L130.92998 29.800003zM140.93 35.71L140.93 19.609999L152.85999 19.609999L152.85999 22.329998L144.18999 22.329998L144.18999 25.899998L152.24998 25.899998L152.24998 28.629997L144.18999 28.629997L144.18999 32.989998L153.16998 32.989998L153.16998 35.71L140.92998 35.71zM156.03 35.71L156.03 19.739998L159.29 19.739998L159.29 32.989998L167.37 32.989998L167.37 35.71L156.03 35.71zM184.19 35.71L180.68001 35.71L179.29001 32.05L172.83 32.05L171.49 35.71L168.04001 35.71L174.29001 19.609999L177.74 19.609999L184.19 35.71zM178.23 29.32L175.98999 23.36L173.81999 29.32L178.23 29.32zM185.93 35.71L185.93 19.609999L189.07999 19.609999L195.70999 30.399998L195.70999 19.609997L198.73 19.609997L198.73 35.71L195.47 35.71L188.94 25.119999L188.94 35.71L185.93001 35.71zM209.65999 29.8L209.65999 27.07L216.65999 27.07L216.65999 33.5C 215.98 34.16 214.99998 34.75 213.69998 35.25C 212.40999 35.75 211.09998 36 209.77998 36C 208.08998 36 206.62999 35.65 205.36998 34.94C 204.12997 34.239998 203.18999 33.219997 202.55998 31.899998C 201.91998 30.589998 201.60999 29.149998 201.60999 27.599998C 201.60999 25.919998 201.95999 24.429998 202.65999 23.119999C 203.37 21.82 204.4 20.81 205.74998 20.109999C 206.77998 19.579998 208.06999 19.31 209.59999 19.31C 211.59999 19.31 213.17 19.73 214.29 20.57C 215.40999 21.42 216.14 22.57 216.45999 24.06L216.45999 24.06L213.21999 24.67C 212.98999 23.88 212.56999 23.25 211.93999 22.79C 211.31999 22.330002 210.54 22.1 209.59999 22.1C 208.18 22.1 207.04999 22.550001 206.21999 23.460001C 205.37999 24.36 204.95999 25.7 204.95999 27.470001C 204.95999 29.390001 205.38998 30.820002 206.23 31.78C 207.08 32.74 208.19 33.22 209.56999 33.22C 210.24998 33.22 210.93 33.08 211.60999 32.81C 212.29999 32.550003 212.87999 32.22 213.37999 31.840002L213.37999 31.840002L213.37999 29.800003L209.65999 29.800003z" stroke="none" fill="#373435" fill-rule="nonzero" />
            <path d="M176.5 51.02L59.5 51.02L59.5 225.89L176.5 225.89L176.5 51.02" stroke="none" fill="#373435" fill-rule="nonzero" />
            <path d="M175.52 52L60.48 52L60.48 224.91L175.52 224.91L175.52 52" stroke="none" fill="#ED3237" fill-rule="nonzero" />
            <path d="M98.9 51.02L137.1 51.02L137.1 148.12L212.88 204.89C 210.05 211.28 206.65001 217.4 202.73001 223.29C 199.48001 228.15999 196.08002 232.62 192.54001 236.73999L192.54001 236.73999L118.00001 185.62999L43.460007 236.73999C 39.920006 232.62 36.520008 228.15999 33.270008 223.29C 29.350008 217.4 25.950008 211.28 23.120008 204.89L23.120008 204.89L98.90001 148.12L98.90001 51.019997L98.9 51.02z" stroke="none" fill="#373435" fill-rule="nonzero" />
            <path d="M99.88 48.51L99.88 148.61L21.279999 208.11C 24.82 215.89 33.079998 231.34 39.14 238.49L39.14 238.49L118 184.45001L194.88 237.32C 202.54001 228.28001 208.86 217.85 213.77 207.05L213.77 207.05L136.12 148.61L136.12 48.510002L99.87999 48.510002L99.88 48.51z" stroke="none" fill="#FEFEFE" fill-rule="nonzero" />
            <path d="M118 287.95C 146.73 273.14 172 260.63 192.48999 236.81001C 193.54 235.58002 193.73 235.35 192.54 236.74L192.54 236.74L117.99999 185.63L43.45999 236.74C 42.199993 235.27 42.52999 235.66 43.54999 236.85C 64.02999 260.65 89.28999 273.15 117.999985 287.95L117.999985 287.95L118 287.95zM194.5 234.41C 193.58 235.53 193.58 235.53 194.5 234.41zM194.88 233.94C 195.63 233.03 195.63 233.03 194.88 233.94z" stroke="none" fill="#201E1E" fill-rule="nonzero" />
            <path d="M118 286.85C 134.27 278.46 150.9 270.15 165.84 259.53C 174.84999 253.13 183.06 245.97 190.39 237.72C 190.84 237.21 191.25 236.68001 191.7 236.16L191.7 236.16L118 185.63L44.239998 236.20001C 44.82 236.86002 45.42 237.51001 45.999996 238.16002C 53.229996 246.23001 61.309998 253.24002 70.159996 259.53003C 85.1 270.15002 101.729996 278.46002 118 286.85004L118 286.85004L118 286.85z" stroke="none" fill="#00A859" fill-rule="nonzero" />
            <path d="M118.66 234.46C 125.65 230.90001 133.12001 228.16 142.88 229.38C 145.86 236.42 148.85 243.45001 151.83 250.49C 150.54001 252.31001 149.25 254.13 147.97 255.95001C 134.09 255.42001 122.22 256.16 118.66 262.17C 115.100006 256.16 103.23 255.42001 89.350006 255.95001C 88.060005 254.13 86.78001 252.31001 85.490005 250.49C 88.47001 243.45001 91.46001 236.42001 94.44 229.38C 104.200005 228.16 111.67 230.90001 118.66 234.46z" stroke="none" fill="#373435" fill-rule="nonzero" />
            <path d="M119.16 260.22C 121.75 257.94 126.03001 256.2 129.28 255.65C 135.1 254.65999 141.55 254.73999 147.47 254.95999L147.47 254.95999L150.54001 250.62C 144.01001 249.56 138.56001 249.43 133.61002 250.09C 128.49002 250.79 123.890015 252.34 119.16002 254.62999C 119.16002 256.50998 119.16002 258.38 119.16002 260.22L119.16002 260.22L119.16 260.22zM150.53 249.92L142.2 230.28C 133.86 229.36 126.579994 231.61 119.2 235.3C 119.2 241.36 119.18 247.68001 119.17 253.87C 123.85 251.62 128.43 250.09999 133.52 249.40999C 138.51001 248.73999 143.99 248.87 150.53 249.91998zM118.16 260.22C 115.57001 257.94 111.29 256.2 108.04 255.65C 102.22 254.65999 95.770004 254.73999 89.85 254.95999L89.85 254.95999L86.77 250.60999C 93.31 249.47998 98.75 249.31999 103.71 249.99998C 108.83 250.69998 113.42 252.29999 118.159996 254.62999C 118.159996 256.50998 118.159996 258.38 118.159996 260.22zM86.8 249.9L95.12 230.28C 103.46001 229.36 110.740005 231.61 118.12 235.3C 118.12 241.36 118.14 247.67 118.15 253.86C 113.47 251.58 108.89 250.02 103.8 249.32C 98.810005 248.64001 93.340004 248.78001 86.8 249.90001z" stroke="none" fill="#FEFEFE" fill-rule="nonzero" />
            <path d="M118.67 254.62C 117.799995 256.21 116.939995 257.79 116.07 259.37C 115.45 260.52 115.2 260.57 116.34 261.41998C 117.74 262.46997 119.189995 262.56 120.689995 261.40997C 121.729996 260.61 121.56999 260.56998 121.03999 259.46997C 120.24999 257.84998 119.45999 256.23996 118.66999 254.61996L118.66999 254.61996L118.67 254.62z" stroke="none" fill="#373435" fill-rule="nonzero" />
            <path d="M118.65 255.69C 117.93 256.99 117.22 258.3 116.5 259.61002C 116.44 259.73 116.04 260.39 116.03 260.50003C 116.07 260.62003 116.53 260.95004 116.63 261.03003C 117.909996 261.98004 119.11 262.00003 120.39 261.02002C 120.49 260.95 120.93 260.61002 120.97 260.50003C 120.97 260.40002 120.65 259.79004 120.6 259.68002C 119.95 258.35004 119.299995 257.02002 118.65 255.69002L118.65 255.69002L118.65 255.69z" stroke="none" fill="#FEFEFE" fill-rule="nonzero" />
            <path d="M118.31 220.38C 108.57 220.61 107.03999 228.38 106.13 232.29001C 105.96999 232.97 105.78 233.57 105.509995 234.13C 104.95 235.34001 103.84 236.17 103.329994 237.37001C 102.869995 238.46 103.24999 239.33002 104.189995 239.99C 105.369995 240.81001 107.409996 241.32 109.78 241.58C 115.07 242.18001 121.8 242.19 127.07 241.56C 129.34 241.28 131.29 240.78 132.43 239.98999C 133.37 239.32999 133.75 238.45999 133.29 237.37C 132.78 236.17 131.67 235.34 131.11 234.12999C 130.84 233.56999 130.65 232.96999 130.49 232.29C 129.58 228.37999 128.05 220.60999 118.310005 220.37999L118.310005 220.37999L118.31 220.38z" stroke="none" fill="#373435" fill-rule="nonzero" />
            <path d="M118.31 220.87C 114.64 220.95999 111.45 222.15999 109.31 225.23999C 108.31 226.66998 107.71 228.20999 107.25 229.81999C 110.61 229.71999 113.56 230.71999 116.16 232.67C 117.04 233.33 117.880005 234.11 118.69 234.99C 119.560005 232.91 120.71 231.11 122.11 229.54001C 123.6 227.87001 125.37 226.49 127.38 225.34001L127.38 225.34001L127.31 225.24C 125.17 222.16 121.979996 220.96 118.31 220.87001L118.31 220.87001L118.31 220.87zM107.06 230.54C 106.899994 231.15 106.75 231.76999 106.6 232.4C 106.45 233.06999 106.25 233.72 105.95 234.34C 105.39 235.55 104.27 236.4 103.78 237.56C 103.409996 238.44 103.72 239.06 104.47 239.58C 105.81 240.52 108.24 240.92 109.840004 241.1C 112.670006 241.42001 115.55 241.54001 118.4 241.54001C 119.68 241.54001 120.98 241.51001 122.270004 241.46C 120.39001 237.88 118.23 235.09001 115.75001 233.22C 113.29001 231.38 110.51001 230.43001 107.350006 230.51C 107.3 230.51 107.170006 230.51999 107.060005 230.54zM123.03999 241.42C 124.369995 241.34 125.7 241.23 127.02 241.06999C 128.55 240.87999 130.84999 240.48999 132.15 239.57999C 132.9 239.05998 133.20999 238.43999 132.84 237.55998C 132.34999 236.39998 131.23 235.54999 130.66 234.33998C 130.37001 233.71999 130.17 233.06998 130.02 232.39998C 129.48001 230.11998 128.96 227.91998 127.75001 225.91998C 125.79001 227.02998 124.07001 228.37999 122.62001 229.99998C 121.21001 231.57999 120.05001 233.41998 119.19001 235.55998C 120.53001 237.12999 121.76001 239.00998 122.89001 241.14998C 122.91 241.19998 122.98 241.31998 123.04001 241.41998z" stroke="none" fill="#00A859" fill-rule="nonzero" />
            <path d="M119.38 226.33L122.78 226.39L120.06 228.44L121.06 231.7L118.27 229.74L115.48 231.7L116.48 228.44L113.76 226.39L117.16 226.33L118.27 223.11L119.38 226.33" stroke="none" fill="#373435" fill-rule="nonzero" />
            <path d="M118.27 224.32L119.1 226.72L121.64 226.76L119.61 228.29L120.35 230.73L118.27 229.27L116.19 230.73L116.93 228.29L114.9 226.76L117.44 226.72L118.27 224.32" stroke="none" fill="#FFF212" fill-rule="nonzero" />
            <path d="M131.77 90.64C 130.85 90.64 130.03 90.64 129.1 90.64L129.1 90.64L129.1 96.979996L126.69 96.979996L118.43 212.35999L109.76 96.97999L106.91 96.97999L106.770004 90.639984C 105.840004 90.639984 104.920006 90.639984 104.00001 90.639984C 112.75001 80.459984 123.020004 80.459984 131.77 90.639984L131.77 90.639984L131.77 90.64z" stroke="none" fill="#373435" fill-rule="nonzero" />
            <path d="M130.9 90.24C 122.62999 81.11 113.13999 81.11 104.85999 90.24C 105.49999 90.24 106.12999 90.24 106.77 90.24L106.77 90.24L107.149994 90.24L107.159996 90.95L113.71 90.95C 113.76 92.81 113.799995 94.67 113.84 96.53L113.84 96.53L118.42999 97.53L113.909996 97.53L110.2 97.53L111.03999 108.8L113.909996 108.8L113.909996 107.350006L118.42999 107.350006L118.42999 206.89001L126.31999 96.59001L128.7 96.59001L128.70999 90.24001L129.09999 90.24001C 129.7 90.24001 130.29999 90.24001 130.9 90.24001L130.9 90.24001L130.9 90.24zM118.42999 106.11L118.42999 105.21L113.909996 105.21L113.909996 106.11L118.42999 106.11zM118.42999 103.96L118.42999 103.07L113.909996 103.07L113.909996 103.96L118.42999 103.96zM118.42999 101.82L118.42999 100.92L113.909996 100.92L113.909996 101.82L118.42999 101.82zM118.42999 99.68L118.42999 98.78L113.909996 98.78L113.909996 99.68L118.42999 99.68zM115.189995 90.35C 111.56999 88.17 112.579994 86.439995 114.63999 85.009995C 111.46999 85.659996 109.13999 88.78999 107.729996 90.34999C 110.21999 90.34999 112.7 90.34999 115.189995 90.34999z" stroke="none" fill="#FEFEFE" fill-rule="nonzero" />
            <path d="M118.44 117.8L133.21 147.44L167.56 151.58L141.96 172.59L148.94 206.85L118 185.63L88.07 206.22L94.14 172.59L69.31 151.58L103.66 147.44L118.44 117.8" stroke="none" fill="#373435" fill-rule="nonzero" />
            <path d="M118.07 120.72L104.5 147.94L117.79 164.67L118.07 120.72zM103.97 148.39L72.58 152.17L117.240005 165.08L103.97 148.39zM72.25 152.79L94.96 172L116.93 165.71L72.25 152.79001zM95.12 172.67L89.520004 203.7L117.29001 166.31999L95.12001 172.67zM90.75 203.19L117.64 184.69L117.659996 184.44L117.77 166.83L90.75 203.19zM118.4 184.72L146.24 203.81L118.46001 166.67L118.340004 184.45L118.4 184.72zM147.41 204.23L140.97 172.66L119.06 166.33L147.41 204.23001zM141.14 172L164.53 152.81L119.42 165.70999L141.14 171.99998zM164.26 152.16L132.87999 148.38L119.13999 165.08L164.26 152.16zM132.36 147.93001L118.76 120.65001L118.47 164.81001L132.36 147.93001z" stroke="none" fill="#FFF212" fill-rule="nonzero" />
            <path d="M61.72 55.52C 66.590004 58.7 71.6 56.47 72.47 61.61C 72.86 63.89 73.14 66.44 73.97 68.72C 75.86 73.94 78.090004 74.57 79.19 78.42C 80.520004 83.049995 78.96 83.99 81.14 90.46C 82.25 93.72 85.18 97.75 86.25 101.08C 87.54 105.11 86.74 107.810005 88.4 113.020004C 90.36 119.19 92.08 119.96001 93.03 123.600006C 93.94 127.100006 93.82 130.55 94.51 133.83C 95.19 137.09 97.840004 137.87 98.01 140.55C 98.240005 144.22 93.48 147.73 89.73 145.44C 87.23 143.92 89.22 140.90001 87.66 136.11C 85.840004 130.5 84.19 129.58 82.990005 126.04C 81.82001 122.590004 82.14001 118.97 81.21001 115.76C 80.16 112.12 77.82001 109.22 76.61001 105.83C 75.08001 101.51 75.12001 96.92 73.89001 92.82C 72.80001 89.2 70.770004 86.06 69.69001 82.62C 68.44001 78.65 68.19001 74.25 66.96001 69.89C 65.65001 65.24 63.630005 60.47 61.72001 55.52L61.72001 55.52L61.72 55.52z" stroke="none" fill="#201E1E" fill-rule="nonzero" />
            <path d="M63.21 57.19C 63.809998 58.719997 68.59 60.559998 68.44 58.59C 67.850006 58.44 67.25 58.34 66.75 58.23C 65.5 57.96 64.33 57.66 63.21 57.19zM92.979996 144C 94.64 141.8 93.64 140.24 93.439995 135.83C 93.74999 139.97 98.85999 140.94 92.979996 144zM80.35 102.57C 83.46 97.78 79.189995 96.09 79.1 90.51C 79.22 95.01 86.729996 99.53 80.35 102.57zM87.36 125.56C 90.47 120.77 86.2 119.079994 86.11 113.509995C 86.23 118.009995 93.74 122.52 87.36 125.56zM73.85 78.5C 75.35 74.14 72.49 72.54 72.049995 67.47C 72.56 71.56 77.7 76.78 73.85 78.5zM63.94 59.03C 65.32 62.53 66.7 66.07 67.71 69.67C 68.33 71.84 68.7 74.049995 69.09 76.27C 69.409996 78.1 69.49 79.68 69.95 81.42C 70.57 81.88 71.43 82.03 72.299995 82.18C 71.53999 82.18 70.84 82.18 70.13 82.05C 71.24 85.560005 73.56 89.03001 74.64 92.600006C 75.72 96.21001 75.84 100.020004 76.78 103.670006C 77.25 105.54001 79.08 105.69 80.79 105.87C 79.61 105.93 78.55 106 77.43 105.79C 78.68 109.16 80.94 111.99 81.96 115.54C 82.93 118.89 82.6 122.46 83.729996 125.79C 84.149994 127.05 85.67999 126.97 86.85999 127.090004C 85.94999 127.14001 85.09999 127.19 84.24999 127.12C 84.479996 127.61 84.729996 128.09 84.99999 128.57C 85.53999 129.53001 86.09999 130.45001 86.59999 131.42001C 87.329994 132.86002 87.90999 134.34001 88.40999 135.87001C 88.97999 137.63 89.11999 139.25002 89.11999 141.08002C 89.11999 141.91002 89.039986 143.31001 89.429985 144.06001C 89.58999 144.37001 89.83999 144.59001 90.12998 144.77002C 91.14998 145.39001 92.29998 145.54002 93.44998 145.24002C 95.43998 144.71002 97.359985 142.76003 97.22998 140.59003C 97.18998 140.07002 97.03998 139.62003 96.77998 139.17003C 96.36998 138.45003 95.72998 137.80003 95.22998 137.13004C 94.48998 136.16003 93.98998 135.19003 93.73998 133.99004C 93.219986 131.50003 93.139984 128.95004 92.789986 126.43004C 92.23998 126.86004 91.64999 127.240036 91.01999 127.65004C 91.64999 127.08004 92.26999 126.51004 92.69999 125.87004C 92.63999 125.49004 92.56999 125.12004 92.48999 124.75004C 91.73999 125.51004 90.87999 126.060036 89.92999 126.68004C 90.98999 125.72004 92.01999 124.75004 92.17999 123.48004C 91.94999 122.66004 91.63999 121.920044 91.24999 121.16004C 90.71999 120.16004 90.12999 119.19004 89.619995 118.170044C 88.81999 116.59004 88.189995 114.95004 87.649994 113.26004C 87.17999 111.78004 86.84999 110.30004 86.63999 108.76004C 86.46999 107.56004 86.38999 106.36004 86.259995 105.16004C 86.189995 104.52004 86.10999 103.890045 85.99 103.27004C 85.34 103.850044 84.619995 104.31004 83.829994 104.820045C 84.84999 103.90005 86.03999 103.12005 85.60999 101.69005C 84.87999 102.40005 84.049995 102.930046 83.13999 103.530045C 84.33999 102.44005 85.65999 101.49004 84.939995 99.850044C 84.38999 98.59004 83.689995 97.350044 83.06 96.19004C 82.1 94.45004 81.04 92.58004 80.399994 90.71004C 79.88999 89.17004 79.45 87.60004 79.23999 85.990036C 79.08999 84.92004 79.06999 83.90004 79.03999 82.83003C 79.009995 81.410034 78.869995 80.230034 78.509995 78.880035C 77.81 79.53004 77.02 80.03004 76.17 80.590034C 77.04 79.80003 77.88 79.01003 78.25 78.05003C 77.94 77.160034 77.53 76.39003 76.98 75.58003C 76.39001 74.71003 75.740005 73.880035 75.18 72.990036C 74.37 71.72004 73.74 70.40004 73.23 68.980034C 72.380005 66.65003 72.11 64.17004 71.700005 61.740036C 71.55 60.850037 71.240005 60.010036 70.50001 59.450035C 70.350006 59.340034 70.19001 59.240036 70.020004 59.150036C 69.920006 60.970036 67.090004 60.570034 63.940002 59.030037z" stroke="none" fill="#FFF212" fill-rule="nonzero" />
            <path d="M173.33 55.52C 168.46 58.7 163.45 56.47 162.58 61.61C 162.19 63.89 161.91 66.44 161.08 68.72C 159.19 73.94 156.96 74.57 155.86 78.42C 154.53 83.049995 156.09 83.99 153.91 90.46C 152.8 93.72 149.87001 97.75 148.8 101.08C 147.51001 105.11 148.31 107.810005 146.65001 113.020004C 144.69 119.19 142.97002 119.96001 142.02 123.600006C 141.11 127.100006 141.23001 130.55 140.54001 133.83C 139.86002 137.09 137.21 137.87 137.04001 140.55C 136.81001 144.22 141.57 147.73 145.32 145.44C 147.82 143.92 145.83 140.90001 147.39001 136.11C 149.21002 130.5 150.86002 129.58 152.06001 126.04C 153.23001 122.590004 152.91002 118.97 153.84001 115.76C 154.89001 112.12 157.23001 109.22 158.44002 105.83C 159.97002 101.51 159.93002 96.92 161.16002 92.82C 162.25002 89.2 164.27002 86.06 165.36002 82.62C 166.61002 78.65 166.86002 74.25 168.09001 69.89C 169.40001 65.24 171.42001 60.47 173.33002 55.52L173.33002 55.52L173.33 55.52z" stroke="none" fill="#201E1E" fill-rule="nonzero" />
            <path d="M171.84 57.19C 171.23 58.719997 166.45999 60.559998 166.61 58.59C 167.2 58.44 167.8 58.34 168.29 58.23C 169.54999 57.96 170.71999 57.66 171.84 57.19zM142.06999 144C 140.40999 141.8 141.40999 140.24 141.60999 135.83C 141.29999 139.97 136.18999 140.94 142.06999 144zM154.7 102.57C 151.59 97.78 155.86 96.09 155.95 90.51C 155.83 95.01 148.31999 99.53 154.7 102.57zM147.69 125.56C 144.58 120.77 148.85 119.079994 148.94 113.509995C 148.82 118.009995 141.31 122.52 147.69 125.56zM161.2 78.5C 159.7 74.14 162.56 72.54 162.98999 67.47C 162.48999 71.56 157.34999 76.78 161.2 78.5zM171.11 59.03C 169.73 62.53 168.35 66.07 167.33 69.67C 166.72 71.84 166.35 74.049995 165.96 76.27C 165.64 78.1 165.56001 79.68 165.1 81.42C 164.48001 81.88 163.62001 82.03 162.75 82.18C 163.51 82.18 164.21 82.18 164.92 82.05C 163.81 85.560005 161.49 89.03001 160.41 92.600006C 159.33 96.21001 159.2 100.020004 158.27 103.670006C 157.8 105.54001 155.97 105.69 154.25 105.87C 155.44 105.93 156.5 106 157.62 105.79C 156.37 109.16 154.11 111.99 153.09 115.54C 152.12 118.89 152.45 122.46 151.31999 125.79C 150.9 127.05 149.37 126.97 148.18999 127.090004C 149.09999 127.14001 149.93999 127.19 150.79 127.12C 150.56999 127.61 150.31999 128.09 150.04999 128.57C 149.51 129.53001 148.94998 130.45001 148.44998 131.42001C 147.71999 132.86002 147.13998 134.34001 146.63998 135.87001C 146.06998 137.63 145.92998 139.25002 145.92998 141.08002C 145.92998 141.91002 145.99998 143.31001 145.61998 144.06001C 145.44998 144.37001 145.20998 144.59001 144.90997 144.77002C 143.89998 145.39001 142.74997 145.54002 141.59998 145.24002C 139.60997 144.71002 137.68997 142.76003 137.81998 140.59003C 137.85997 140.07002 138.00998 139.62003 138.26997 139.17003C 138.67998 138.45003 139.31998 137.80003 139.81998 137.13004C 140.54997 136.16003 141.05998 135.19003 141.30998 133.99004C 141.82999 131.50003 141.89998 128.95004 142.25998 126.43004C 142.80998 126.86004 143.39998 127.240036 144.02998 127.65004C 143.39998 127.08004 142.77998 126.51004 142.34999 125.87004C 142.40999 125.49004 142.48 125.12004 142.54999 124.75004C 143.30998 125.51004 144.16998 126.060036 145.12 126.68004C 144.06 125.72004 143.03 124.75004 142.86 123.48004C 143.1 122.66004 143.41 121.920044 143.8 121.16004C 144.32 120.16004 144.91 119.19004 145.43001 118.170044C 146.23001 116.59004 146.86 114.95004 147.40001 113.26004C 147.87001 111.78004 148.20001 110.30004 148.41 108.76004C 148.58 107.56004 148.66 106.36004 148.79001 105.16004C 148.85 104.52004 148.94 103.890045 149.06001 103.27004C 149.71 103.850044 150.43001 104.31004 151.22002 104.820045C 150.20001 103.90005 149.01001 103.12005 149.44002 101.69005C 150.17001 102.40005 151.00002 102.930046 151.91002 103.530045C 150.71002 102.44005 149.39001 101.49004 150.11002 99.850044C 150.66002 98.59004 151.36002 97.350044 151.99002 96.19004C 152.95003 94.45004 154.01003 92.58004 154.65002 90.71004C 155.16002 89.17004 155.60002 87.60004 155.81003 85.990036C 155.96002 84.92004 155.98003 83.90004 156.01003 82.83003C 156.04002 81.410034 156.18002 80.230034 156.54002 78.880035C 157.24002 79.53004 158.03003 80.03004 158.88002 80.590034C 158.01003 79.80003 157.17001 79.01003 156.80002 78.05003C 157.11002 77.160034 157.52002 76.39003 158.07002 75.58003C 158.66002 74.71003 159.30002 73.880035 159.87003 72.990036C 160.68002 71.72004 161.31003 70.40004 161.82002 68.980034C 162.67003 66.65003 162.93002 64.17004 163.35002 61.740036C 163.50002 60.850037 163.81003 60.010036 164.55002 59.450035C 164.70001 59.340034 164.86002 59.240036 165.03001 59.150036C 165.13002 60.970036 167.96 60.570034 171.11002 59.030037z" stroke="none" fill="#FFF212" fill-rule="nonzero" />
            <path d="M217.42 150.12C 219.29 150.92 220.62 152.87 220.62 155.14C 220.62 158.13 218.34 160.55 215.53 160.55C 212.43 160.55 212.03 162.28 209.13 162.28C 206.32 162.28 204.04001 159.86 204.04001 156.87C 204.04001 153.98999 201.82 153.62999 201.82 150.54C 201.82 147.56999 204.09001 145.17 206.88 145.17C 208.24 145.17 209.47 145.74 210.38 146.67C 210.47 144.3 212.31 142.4 214.57 142.4C 216.88 142.4 218.76001 144.4 218.76001 146.86C 218.76001 148.15 218.24 149.31 217.42001 150.12L217.42001 150.12L217.42 150.12zM218.99 154.29999C 219.75 156.46999 219.32 157.68 217.58 157.85999C 218.76 157.03998 219.19 155.82999 218.99 154.29999z" stroke="none" fill="#FEFEFE" fill-rule="nonzero" />
            <path d="M201.65 148.71C 202.92 151.42001 204.18 154.13 205.45 156.84001C 207.06999 155.97002 208.68 155.11002 210.29 154.24C 210.23 156.35 210.18 158.45001 210.12 160.55C 212.22 160.67 215.54 160.14 217.65 160.25C 210.18999 161.4 209.9 167.22 202.56 169.42C 199.45 175.45999 204.23 185.61 207.87 185.09C 207.68 184.45999 208.19 189.33 206.26999 191.18C 200.93999 189.29 198.04999 171.53 201.26 167.5C 199.43999 159.53 201.89 155.74 201.65 148.70999L201.65 148.70999L201.65 148.71zM207.29 163.84001C 207.48 163.73001 207.68999 163.6 207.9 163.45001C 208.09999 163.31001 206.98 164.78001 206.73 165.12001C 206.34999 165.65001 206.12 166.08002 205.56 166.3C 205.37 166.37001 204.93 166.41 204.67 166.41C 202.59 166.41 207.03 163.98001 207.29 163.84z" stroke="none" fill="#00A859" fill-rule="nonzero" />
            <path d="M215.78 124.8C 217.44 125.51 220.70999 126.78001 220.70999 129.11C 220.70999 131.44 218.45 135.57 215.95999 135.57C 213.20999 135.57 211.73 135 209.15999 135C 206.66998 135 204.65 132.85 204.65 130.2C 204.65 127.649994 202.68 127.32 202.68 124.59C 202.68 121.96 204.43999 120.75 206.28 120.75C 208.12 120.75 208.58 121.26 209.39 122.08C 209.08 119.1 211.47 116.69 213.49 116.69C 218.08 116.69 218.33 122.29 215.78 124.8zM218.59 128.81C 220.37 130.95 218.14 133.02 216.61 133.18C 217.65 132.45999 218.76 130.15999 218.59 128.81z" stroke="none" fill="#FEFEFE" fill-rule="nonzero" />
            <path d="M202.53 122.97C 203.65 125.37 204.58 128.45 205.7 130.85C 207.12999 130.09001 208.76 128.64 210.19 127.87C 210.14 129.74 210.84 132.88 210.79001 134.74C 212.65001 134.85 212.94 135.49 214.8 135.6C 208.41 136.58 209.63 139.34001 203.92 141.16C 202.58 141.08 201.02 149.35 202.09 150.56C 202.51 153.15 201.7 153.31 201.45 153.37C 200.27 152.86 201.56999 141.59999 202.41 140.54999C 200.37001 132.83998 202.75 129.45999 202.53 122.969986L202.53 122.969986L202.53 122.97zM208.02 137.06C 208.18001 136.97 208.37001 136.84999 208.56 136.72C 208.73 136.6 207.83 139.34 205.69 139.34C 203.85 139.34 207.79001 137.19 208.02 137.06z" stroke="none" fill="#00A859" fill-rule="nonzero" />
            <path d="M216.64 96.46C 220.59 96.549995 221.46 100.93 219.19 103.5C 218.03 104.82 216.13 105.04 214.45 105.04C 211.7 105.04 212.31999 104.82 209.75 104.82C 207.26 104.82 205.24 102.67 205.24 100.02C 205.24 97.46999 203.27 97.14 203.27 94.409996C 203.27 92.85 203.78 91.24999 204.75 90.17999C 206.67 88.049995 209.32 88.509995 210.44 91.06999C 210.55 88.37999 214.81 87.66999 216.39 89.40999C 218 91.18999 218 95.11999 216.64 96.45999L216.64 96.45999L216.64 96.46zM219.13 98.81C 220.01001 100.21 219.11 102.32 217.52 102.14C 218.56 101.42 219.3 100.159996 219.13 98.81z" stroke="none" fill="#FEFEFE" fill-rule="nonzero" />
            <path d="M203.4 95.55C 204.51999 97.950005 205.36 97.590004 206.48 99.990005C 207.92 99.22001 209.34999 98.46001 210.78 97.69C 210.73 99.560005 210.67 101.420006 210.62 103.29C 212.48999 103.39 214.15999 104.92 216.01999 105.020004C 209.19998 106.07001 210.41998 109.54 203.26999 111.33C 202.76 113.950005 201.4 116.18 202.62 123.16C 202.94 126.14001 202.62 127.740005 202.31999 129.26001C 199.93 127.11001 201.54999 109.240005 202.54999 107.990005C 200.04 101.14001 203.12999 100.840004 203.4 95.55zM208.12 106.200005C 208.29 106.11001 208.47 105.990005 208.65999 105.850006C 208.82999 105.73 207.83998 107.03001 207.62 107.340004C 207.28 107.810005 207.06999 108.19 206.58 108.380005C 206.41 108.450005 206.03 108.48 205.79001 108.48C 203.95001 108.48 207.88 106.33 208.12001 106.200005z" stroke="none" fill="#00A859" fill-rule="nonzero" />
            <path d="M210.96 68.19C 215.38 67.23 217.53001 72.71 216.02 75.450005C 215.25 76.850006 214.1 77.82001 212.49 78.21001C 209.84001 78.86001 209.67 77.76001 207.19 78.37001C 204.79001 78.95001 202.27 77.59001 201.57 75.32001C 200.89001 73.14001 200.25 73.880005 199.53001 71.53001C 198.90001 69.51001 199.85002 66.78001 203.32 67.990005C 202.71 65.670006 205.08 60.490005 208.97 61.480003C 212.26 62.320004 211.92 66.73 210.96 68.19zM214.88 70.44C 216.20001 71.25 216.25 74.43 214.55 74.83C 215.09 73.810005 215.05 71.55 214.88 70.44z" stroke="none" fill="#FEFEFE" fill-rule="nonzero" />
            <path d="M199.47 70.95C 201.19 72.74 202.13 75.27 204.87 75.939995C 206.04 74.939995 206.67 75.119995 207.84999 74.13C 208.29 75.729996 208.18999 75.82 208.63998 77.43C 210.45999 77.08 212.20999 77.88 214.03998 77.53C 208.17998 79.86 208.92998 81.93 203.90997 84.799995C 203.88997 86.13 200.67998 96.549995 202.87997 99.39C 202.73997 99.15 202.25998 104.67 202.08998 100.72C 199.10999 98.07 202.75998 87.14 202.00998 84.28C 198.50998 77.78 200.06998 76.19 199.46999 70.95L199.46999 70.95L199.47 70.95zM200.58 79.159996C 200.65001 79.079994 201.63 79.89 202.52 80.71999C 203.21 81.35999 205.19 83.38999 203.06 83.909996C 201.79 84.21999 200.25 79.5 200.58 79.159996z" stroke="none" fill="#00A859" fill-rule="nonzero" />
            <path d="M186.22 157.99C 183.27 157.8 181.68001 162.35 183.95 164.91C 185.11 166.24 186.62999 165.75 188.3 165.75C 191.05 165.75 190.93001 164.94 193.5 164.94C 195.99 164.94 195.33 164.14 195.33 161.49C 195.33 158.94 196.55 157.79001 196.55 155.06001C 196.55 153.50002 196.90001 151.21 195.59 149.85C 193.67 147.73001 189.79 148.97 188.67 151.53C 185.43 149.56999 183.84 150.93 183.31999 152.95999C 182.37999 156.96999 184.85999 156.65 186.21999 157.98999L186.21999 157.98999L186.22 157.99zM192.57 150.52C 193.29001 151.27 195.14001 151.95 195.91 153.8C 196.43001 151.83 194.41 150.28 192.57 150.52z" stroke="none" fill="#FEFEFE" fill-rule="nonzero" />
            <path d="M196.55 155.06C 195.43001 157.45999 195.71 156.48 194.58 158.88C 193.15001 158.12001 192.17 159.37001 190.74 158.6C 190.79001 160.47 192.58 161.55 192.63 163.41C 190.76001 163.51001 189.20001 165.89 187.34001 165.99C 193.11002 166.17 194.70001 168.55 197.29001 168.57C 197.65001 168.58 200.23001 172.40001 200.65001 172.3C 200.72002 171.71 201.6 170.06 201.04001 168.48C 199.71 168.76999 198.71 166.04 198.73001 165.69C 199.20001 158.07 196.34001 161.18001 196.55002 155.06L196.55002 155.06L196.55 155.06zM195.13 166.33C 194.96 166.23 194.78 166.11 194.59001 165.98C 194.42001 165.86 194.30002 167.73 196.45001 167.73C 198.30002 167.73 195.36002 166.45 195.13 166.33z" stroke="none" fill="#00A859" fill-rule="nonzero" />
            <path d="M187.21 136.1C 184.27 135.91 183.96 141.32 185.46 143.22C 186.56001 144.6 187.62001 145.14 189.29001 145.14C 192.04001 145.14 192.11002 144.02 194.67001 144.02C 197.17001 144.02 197.13002 143.74 197.13002 141.09001C 197.13002 138.54001 198.25002 137.24 198.83002 136.38C 201.04002 135.49 200.62001 130.13 199.31001 128.78C 197.39001 126.65 193.90001 127.04 192.77002 129.59C 190.69002 122.56 184.38002 126.28999 183.86002 128.31C 181.82002 133.29 185.85002 134.76 187.21002 136.09999L187.21002 136.09999L187.21 136.1zM196.1 129.11C 196.82 129.86 198.67001 130.54 199.44 132.39C 199.97 130.42 197.94 128.87 196.1 129.11z" stroke="none" fill="#FEFEFE" fill-rule="nonzero" />
            <path d="M198.83 136.38C 197.61 137.39 198.28 136.89 197.15001 139.29001C 195.73001 138.53001 194.50002 138.39001 193.07 137.62001C 193.12001 139.49 193.81001 141.24 193.86 143.1C 191.99 143.21 190.58 145 188.71 145.11C 194.49 145.29 196 150.4 200.19 148.46C 200.53 148.3 200.79001 150.47 201.21 150.37001C 201.28001 149.78001 201.36 147.42001 201.65001 145.11002C 198.42001 145.82002 198.11002 138.22002 198.83 136.38002L198.83 136.38002L198.83 136.38zM194.62 145.34001C 194.43 145.25002 195.23999 148.26001 198.79 147.85C 200.26 147.68001 196.12 145.97 194.62 145.34001z" stroke="none" fill="#00A859" fill-rule="nonzero" />
            <path d="M185.47 111.13C 182.52 110.93 182.1 113.88 182.56 116.259995C 183.13 119.229996 187.25 119.78999 188.92 119.78999C 191.68 119.78999 192.22 120.49999 194.78 120.49999C 197.28 120.49999 197.25 120.20999 197.25 117.55999C 197.25 115.00999 197.37 111.33999 197.95 110.469986C 197.95 107.249985 197.72 107.179985 196.68 105.819984C 195.18 104.00999 192.20999 103.86999 191.09 106.41998C 188.79 101.64999 186.17 103.69998 184.95999 104.459984C 182.34 106.94998 184.10999 109.789986 185.46999 111.12998L185.46999 111.12998L185.47 111.13zM193.68001 105.68C 194.40001 106.43 195.62001 107.26 196.39001 109.12C 196.91002 107.15 195.52002 105.44 193.68001 105.68z" stroke="none" fill="#FEFEFE" fill-rule="nonzero" />
            <path d="M197.95 110.47C 196.73 111.48 196.31 112.69 196.08 115.090004C 194.65001 114.33 194.24 113.96001 192.81 113.19C 192.86 115.060005 192.33 116.28 192.38 118.15C 190.52 118.25 190.41 119.200005 188.92 119.79C 194.7 119.97 194.27 125.92 200.31 124.93C 200.67 124.88 200.93 126.63 201.36 126.52C 201.43001 125.93 201.69 120.89 201.98 118.579994C 199.48 119.06999 197.95999 112.799995 197.95 110.46999L197.95 110.46999L197.95 110.47zM194.42 120.96C 194.22 120.88 195.98 124.21 199.53 123.799995C 201.01 123.63 195.91 121.6 194.42 120.96z" stroke="none" fill="#00A859" fill-rule="nonzero" />
            <path d="M185.74 90.1C 183.23001 91.5 182.90001 93.76 183.71 96.04C 184.64 98.61 187.99 98.29 189.67001 98.29C 192.42001 98.29 192.52002 98.64 195.09001 98.64C 197.59001 98.64 197.55002 98.35 197.55002 95.7C 197.55002 93.149994 197.19002 88.71999 197.77002 87.86C 198.55002 83.72 197.37003 81.18 195.31001 80.4C 192.98001 79.51 189.71 80.840004 190.01001 84.01C 185.06001 80.990005 182.15001 86.57 185.74 90.100006L185.74 90.100006L185.74 90.1zM194.38 81.32C 195.11 82.07 196.32 82.909996 197.09001 84.76C 197.62001 82.79 196.22002 81.08 194.38 81.32z" stroke="none" fill="#FEFEFE" fill-rule="nonzero" />
            <path d="M197.7 87.11C 196.48 88.12 197.27 89.73 197.05 92.14C 195.61 91.37 194.19 90.24 192.76001 89.47C 192.82 91.340004 192.64001 94.43 192.69 96.29C 190.92 97.14 190.87 97.82 189.39 98.4C 195.17 98.590004 194.56999 102.97 200.61 101.99C 200.98 101.93 201.99 104.77 202.42 104.67C 202.49 104.08 202.59 101.7 202.88 99.39C 202.68001 93.5 198.11 93.64 197.70001 87.11L197.70001 87.11L197.7 87.11zM194.72 99.11C 194.53 99.03 196.41 101.68 199.17 99.76C 200.39 98.920006 196.22 99.740005 194.72 99.11z" stroke="none" fill="#00A859" fill-rule="nonzero" />
		</g>
	</g>
</g>
</svg>
